<mxfile host="app.diagrams.net" modified="2021-01-14T21:16:32.059Z" agent="5.0 (Windows NT 10.0; Win64; x64) AppleWebKit/537.36 (KHTML, like Gecko) Chrome/87.0.4280.141 Safari/537.36" etag="m63cq-sycjXmMpjRksKU" version="14.2.3" type="github">
  <diagram id="gT5Ahr8aB3ab0rBpAsjc" name="Page-1">
    <mxGraphModel dx="782" dy="468" grid="0" gridSize="10" guides="1" tooltips="1" connect="1" arrows="1" fold="1" page="1" pageScale="1" pageWidth="827" pageHeight="1169" math="0" shadow="0">
      <root>
        <mxCell id="0" />
        <mxCell id="1" parent="0" />
        <mxCell id="nL5kYIlsXwx_xN5a4O-O-1" value="Online Tourist Reservation System" style="ellipse;whiteSpace=wrap;html=1;aspect=fixed;" vertex="1" parent="1">
          <mxGeometry x="340" y="194" width="112" height="112" as="geometry" />
        </mxCell>
        <mxCell id="nL5kYIlsXwx_xN5a4O-O-2" value="Tour Management" style="rounded=0;whiteSpace=wrap;html=1;" vertex="1" parent="1">
          <mxGeometry x="380" y="98" width="72" height="60" as="geometry" />
        </mxCell>
        <mxCell id="nL5kYIlsXwx_xN5a4O-O-4" value="User Management&amp;nbsp;" style="rounded=0;whiteSpace=wrap;html=1;" vertex="1" parent="1">
          <mxGeometry x="465" y="126" width="72" height="60" as="geometry" />
        </mxCell>
        <mxCell id="nL5kYIlsXwx_xN5a4O-O-5" value="Place Management" style="rounded=0;whiteSpace=wrap;html=1;" vertex="1" parent="1">
          <mxGeometry x="492" y="202" width="72" height="60" as="geometry" />
        </mxCell>
        <mxCell id="nL5kYIlsXwx_xN5a4O-O-6" value="Hotel Management" style="rounded=0;whiteSpace=wrap;html=1;" vertex="1" parent="1">
          <mxGeometry x="488" y="279" width="72" height="60" as="geometry" />
        </mxCell>
        <mxCell id="nL5kYIlsXwx_xN5a4O-O-7" value="Booking Management" style="rounded=0;whiteSpace=wrap;html=1;" vertex="1" parent="1">
          <mxGeometry x="400" y="339" width="72" height="60" as="geometry" />
        </mxCell>
        <mxCell id="nL5kYIlsXwx_xN5a4O-O-8" value="Transport Management" style="rounded=0;whiteSpace=wrap;html=1;" vertex="1" parent="1">
          <mxGeometry x="293" y="113" width="72" height="60" as="geometry" />
        </mxCell>
        <mxCell id="nL5kYIlsXwx_xN5a4O-O-9" value="Role Management" style="rounded=0;whiteSpace=wrap;html=1;" vertex="1" parent="1">
          <mxGeometry x="231" y="264" width="72" height="60" as="geometry" />
        </mxCell>
        <mxCell id="nL5kYIlsXwx_xN5a4O-O-10" value="Payment management" style="rounded=0;whiteSpace=wrap;html=1;" vertex="1" parent="1">
          <mxGeometry x="309" y="341" width="72" height="60" as="geometry" />
        </mxCell>
        <mxCell id="nL5kYIlsXwx_xN5a4O-O-11" value="Permission Management" style="rounded=0;whiteSpace=wrap;html=1;" vertex="1" parent="1">
          <mxGeometry x="228" y="189" width="72" height="60" as="geometry" />
        </mxCell>
        <mxCell id="nL5kYIlsXwx_xN5a4O-O-12" value="" style="endArrow=classic;startArrow=classic;html=1;entryX=0.417;entryY=0.983;entryDx=0;entryDy=0;entryPerimeter=0;" edge="1" parent="1" target="nL5kYIlsXwx_xN5a4O-O-2">
          <mxGeometry width="50" height="50" relative="1" as="geometry">
            <mxPoint x="400" y="194" as="sourcePoint" />
            <mxPoint x="450" y="144" as="targetPoint" />
          </mxGeometry>
        </mxCell>
        <mxCell id="nL5kYIlsXwx_xN5a4O-O-14" value="" style="endArrow=classic;startArrow=classic;html=1;exitX=0;exitY=0;exitDx=0;exitDy=0;" edge="1" parent="1" source="nL5kYIlsXwx_xN5a4O-O-1">
          <mxGeometry width="50" height="50" relative="1" as="geometry">
            <mxPoint x="287" y="216" as="sourcePoint" />
            <mxPoint x="328" y="174" as="targetPoint" />
          </mxGeometry>
        </mxCell>
        <mxCell id="nL5kYIlsXwx_xN5a4O-O-16" value="" style="endArrow=classic;startArrow=classic;html=1;entryX=0;entryY=0.5;entryDx=0;entryDy=0;" edge="1" parent="1" target="nL5kYIlsXwx_xN5a4O-O-6">
          <mxGeometry width="50" height="50" relative="1" as="geometry">
            <mxPoint x="437" y="289" as="sourcePoint" />
            <mxPoint x="487" y="239" as="targetPoint" />
          </mxGeometry>
        </mxCell>
        <mxCell id="nL5kYIlsXwx_xN5a4O-O-17" value="" style="endArrow=classic;startArrow=classic;html=1;entryX=0;entryY=0.75;entryDx=0;entryDy=0;exitX=1;exitY=0;exitDx=0;exitDy=0;" edge="1" parent="1" source="nL5kYIlsXwx_xN5a4O-O-1" target="nL5kYIlsXwx_xN5a4O-O-4">
          <mxGeometry width="50" height="50" relative="1" as="geometry">
            <mxPoint x="443" y="211" as="sourcePoint" />
            <mxPoint x="474" y="154" as="targetPoint" />
          </mxGeometry>
        </mxCell>
        <mxCell id="nL5kYIlsXwx_xN5a4O-O-18" value="" style="endArrow=classic;startArrow=classic;html=1;exitX=1;exitY=0.393;exitDx=0;exitDy=0;exitPerimeter=0;entryX=0;entryY=0.5;entryDx=0;entryDy=0;" edge="1" parent="1" source="nL5kYIlsXwx_xN5a4O-O-1" target="nL5kYIlsXwx_xN5a4O-O-5">
          <mxGeometry width="50" height="50" relative="1" as="geometry">
            <mxPoint x="457" y="215" as="sourcePoint" />
            <mxPoint x="507" y="165" as="targetPoint" />
          </mxGeometry>
        </mxCell>
        <mxCell id="nL5kYIlsXwx_xN5a4O-O-19" value="" style="endArrow=classic;startArrow=classic;html=1;entryX=0.616;entryY=0.973;entryDx=0;entryDy=0;entryPerimeter=0;" edge="1" parent="1" target="nL5kYIlsXwx_xN5a4O-O-1">
          <mxGeometry width="50" height="50" relative="1" as="geometry">
            <mxPoint x="425" y="339" as="sourcePoint" />
            <mxPoint x="475" y="289" as="targetPoint" />
          </mxGeometry>
        </mxCell>
        <mxCell id="nL5kYIlsXwx_xN5a4O-O-20" value="" style="endArrow=classic;startArrow=classic;html=1;exitX=0.5;exitY=0;exitDx=0;exitDy=0;" edge="1" parent="1" source="nL5kYIlsXwx_xN5a4O-O-10" target="nL5kYIlsXwx_xN5a4O-O-1">
          <mxGeometry width="50" height="50" relative="1" as="geometry">
            <mxPoint x="369" y="348" as="sourcePoint" />
            <mxPoint x="419" y="298" as="targetPoint" />
          </mxGeometry>
        </mxCell>
        <mxCell id="nL5kYIlsXwx_xN5a4O-O-21" value="" style="endArrow=classic;startArrow=classic;html=1;" edge="1" parent="1">
          <mxGeometry width="50" height="50" relative="1" as="geometry">
            <mxPoint x="302" y="292" as="sourcePoint" />
            <mxPoint x="344" y="272" as="targetPoint" />
          </mxGeometry>
        </mxCell>
        <mxCell id="nL5kYIlsXwx_xN5a4O-O-23" value="" style="endArrow=classic;startArrow=classic;html=1;exitX=1;exitY=0.5;exitDx=0;exitDy=0;" edge="1" parent="1" source="nL5kYIlsXwx_xN5a4O-O-11" target="nL5kYIlsXwx_xN5a4O-O-1">
          <mxGeometry width="50" height="50" relative="1" as="geometry">
            <mxPoint x="300" y="216" as="sourcePoint" />
            <mxPoint x="350" y="166" as="targetPoint" />
          </mxGeometry>
        </mxCell>
      </root>
    </mxGraphModel>
  </diagram>
</mxfile>
